<svg version="1.2" baseProfile="tiny" viewBox="0 0 32 32" xmlns:xlink="http://www.w3.org/1999/xlink" xmlns="http://www.w3.org/2000/svg">
<path style="fill:#ffffff;" d="M25.875,8.198C22.607,4.929,18.07,3.536,13.631,4.319L16.775,1.466C17.119,1.153,17.145,0.620999,16.833,0.276999C16.521,-0.0680012,15.988,-0.0940012,15.644,0.218999L10.069,5.277C9.87201,5.456,9.77101,5.717,9.79701,5.981C9.82201,6.245,9.97101,6.482,10.198,6.62L15.958,10.122C16.095,10.205,16.245,10.244,16.395,10.244C16.679,10.244,16.957,10.101,17.115,9.839C17.357,9.442,17.23,8.924,16.833,8.682L12.793,6.225C17.043,5.062,21.534,6.236,24.685,9.386C27,11.701,28.275,14.779,28.276,18.054C28.276,21.328,27.002,24.407,24.687,26.722C22.371,29.038,19.293,30.313,16.018,30.313H16.017C12.743,30.312,9.66401,29.037,7.34901,26.722C2.83901,22.212,2.51101,15.118,6.58601,10.222C6.88301,9.865,6.83501,9.334,6.47701,9.036C6.11901,8.742,5.58901,8.79,5.29001,9.147C0.654011,14.717,1.02701,22.785,6.15701,27.915C8.79001,30.549,12.291,31.999,16.015,32H16.016C19.741,32,23.243,30.549,25.876,27.915C31.313,22.48,31.312,13.634,25.875,8.198Z"/>
</svg>