<svg version="1.2" baseProfile="tiny" viewBox="0 0 32 32" xmlns:xlink="http://www.w3.org/1999/xlink" xmlns="http://www.w3.org/2000/svg">
<path style="fill:#ffffff;" d="M15.75 0C7.065 0 0 7.065 0 15.75C0 24.435 7.065 31.5 15.75 31.5C24.435 31.5 31.5 24.435 31.5 15.75C31.5 7.065 24.435 0 15.75 0ZM15.75 30C7.893 30 1.5 23.607 1.5 15.75C1.5 7.893 7.893 1.5 15.75 1.5C23.607 1.5 30 7.893 30 15.75C30 23.607 23.607 30 15.75 30Z M22.266 23.75H9.234C8.414 23.75 7.75 23.086 7.75 22.266V9.234C7.75 8.414 8.414 7.75 9.234 7.75H22.266C23.086 7.75 23.75 8.414 23.75 9.234V22.266C23.75 23.086 23.086 23.75 22.266 23.75Z"/>
</svg>