<?xml version="1.0" encoding="UTF-8"?>
<svg id="Layer_1" data-name="Layer 1" xmlns="http://www.w3.org/2000/svg" viewBox="0 0 691.06 77.79">
  <defs>
    <style>
      .cls-1, .cls-2 {
        fill: #e31f26;
      }

      .cls-3, .cls-4 {
        fill: #231f20;
      }

      .cls-4 {
        stroke: #231f20;
      }

      .cls-4, .cls-2 {
        stroke-miterlimit: 3.86;
        stroke-width: .34px;
      }

      .cls-2 {
        stroke: #e31f26;
      }
    </style>
  </defs>
  <g>
    <path class="cls-1" d="M0,21.13h17.42v19.82h19.04v-19.82h17.5v56.65h-17.5v-22.92h-19.04v22.92H0V21.13Z"/>
    <path class="cls-1" d="M100.2,68.43h-19.78l-2.75,9.35h-17.79l21.19-56.65h19l21.19,56.65h-18.24l-2.82-9.35ZM96.58,56.18l-6.22-20.37-6.16,20.37h12.38Z"/>
    <path class="cls-1" d="M127.03,77.79V21.13h29.04c5.38,0,9.5.46,12.35,1.39,2.85.93,5.14,2.65,6.88,5.16,1.74,2.51,2.62,5.57,2.62,9.18,0,3.14-.67,5.85-2,8.13-1.33,2.28-3.17,4.13-5.5,5.55-1.49.9-3.53,1.65-6.12,2.24,2.07.7,3.59,1.39,4.54,2.09.64.46,1.57,1.46,2.79,2.98,1.22,1.52,2.03,2.7,2.44,3.52l8.44,16.42h-19.69l-9.31-17.31c-1.18-2.24-2.23-3.7-3.15-4.37-1.26-.88-2.68-1.31-4.27-1.31h-1.54v22.99h-17.5ZM144.53,44.09h7.35c.79,0,2.33-.26,4.62-.77,1.15-.23,2.1-.82,2.83-1.78.73-.95,1.1-2.05,1.1-3.29,0-1.83-.58-3.23-1.73-4.21s-3.32-1.47-6.5-1.47h-7.65v11.52Z"/>
    <path class="cls-1" d="M187.99,21.13h28.96c6.31,0,11.03,1.51,14.17,4.52,3.14,3.01,4.71,7.3,4.71,12.87s-1.71,10.19-5.13,13.41c-3.42,3.22-8.65,4.83-15.67,4.83h-9.54v21.02h-17.5V21.13ZM205.49,45.29h4.27c3.36,0,5.72-.59,7.08-1.76,1.36-1.17,2.04-2.67,2.04-4.5s-.59-3.28-1.77-4.52c-1.18-1.24-3.4-1.85-6.65-1.85h-4.96v12.64Z"/>
    <path class="cls-1" d="M272.92,68.43h-19.78l-2.75,9.35h-17.79l21.19-56.65h19l21.19,56.65h-18.24l-2.82-9.35ZM269.31,56.18l-6.22-20.37-6.16,20.37h12.38Z"/>
    <path class="cls-1" d="M299.6,21.13h17.42v21.41l18.25-21.41h23.17l-20.58,21.38,21.5,35.27h-21.45l-11.89-23.3-9,9.47v13.82h-17.42V21.13Z"/>
  </g>
  <g>
    <path class="cls-2" d="M441.84.28c0,27.51-7.2,49.87-16,49.87s-16-22.36-16-49.87h32Z"/>
    <path class="cls-4" d="M462.98.18c0,40.79-16.75,74-37.14,74S388.79,40.97,388.79.18l-1.68.09v77.18h77.18V.28l-1.31-.09h0Z"/>
    <polygon class="cls-3" points="536.2 22.05 551.55 22.05 551.55 61.88 572 61.88 572 75.29 536.2 75.29 536.2 22.05 536.2 22.05"/>
    <polygon class="cls-3" points="576.49 75.29 576.49 22.05 592.21 22.05 605.09 45.41 618.2 22.05 631.9 22.05 631.9 75.21 616.18 75.21 616.18 52.15 603.97 75.21 591.99 52.15 591.99 75.29 576.49 75.29 576.49 75.29"/>
    <path class="cls-3" d="M514.34,53.42v-31.38h15.5l.08,31.38c0,12.88-10.56,23.36-23.44,23.36s-23.36-10.48-23.36-23.36l-.07-31.38h15.35v31.23c0,4.42,3.67,8.01,8.01,8.01s7.94-3.44,7.94-7.86h0Z"/>
    <path class="cls-3" d="M676.23,75.21h14.83l-17.97-53.17h-18.95l-19.69,53.17h16.17l3.59-10.63h18.48l3.54,10.63ZM658.68,51.32l4.82-14.3,4.77,14.3h-9.59Z"/>
  </g>
</svg>