<?xml version="1.0" encoding="UTF-8" standalone="no"?>
<svg
   version="1.2"
   viewBox="0 0 11.572 18.000"
   id="svg1"
   sodipodi:docname="PauseIcon.svg"
   inkscape:version="1.4.2 (f4327f4, 2025-05-13)"
   xmlns:inkscape="http://www.inkscape.org/namespaces/inkscape"
   xmlns:sodipodi="http://sodipodi.sourceforge.net/DTD/sodipodi-0.dtd"
   xmlns="http://www.w3.org/2000/svg"
   xmlns:svg="http://www.w3.org/2000/svg">
  <defs
     id="defs1" />
  <sodipodi:namedview
     id="namedview1"
     pagecolor="#ffffff"
     bordercolor="#000000"
     borderopacity="0.25"
     inkscape:showpageshadow="2"
     inkscape:pageopacity="0.0"
     inkscape:pagecheckerboard="0"
     inkscape:deskcolor="#d1d1d1"
     inkscape:zoom="64.833333"
     inkscape:cx="5.7917738"
     inkscape:cy="9"
     inkscape:window-width="2560"
     inkscape:window-height="1369"
     inkscape:window-x="2552"
     inkscape:window-y="-8"
     inkscape:window-maximized="1"
     inkscape:current-layer="svg1" />
  <path
     style="fill:#000000"
     d="M3.066,16.934C3.066,17.521,2.571,18,1.962,18H1.104C0.497,18,0,17.521,0,16.934V1.066   C0,0.479,0.497,0,1.104,0h0.859c0.608,0,1.104,0.479,1.104,1.066V16.934z M11.572,1.066C11.572,0.479,11.075,0,10.467,0H9.608   C9.001,0,8.505,0.479,8.505,1.066v15.868C8.505,17.521,9.001,18,9.608,18h0.858c0.608,0,1.105-0.479,1.105-1.066V1.066z"
     id="path1" />
</svg>
